<?xml version="1.0" encoding="iso-8859-1"?>
<!-- Generator: Adobe Illustrator 19.0.0, SVG Export Plug-In . SVG Version: 6.00 Build 0)  -->
<svg version="1.1" id="Capa_1" xmlns="http://www.w3.org/2000/svg" xmlns:xlink="http://www.w3.org/1999/xlink" x="0px" y="0px"
	 viewBox="0 0 509.712 509.712" style="enable-background:new 0 0 509.712 509.712;" xml:space="preserve">
<g>
	<path style="fill:#4B9FD8;" d="M436.96,254.906l-37.088,37.088C304.112,387.754,136.416,414.314,0,279.738l25.008-24.832
		L0.176,230.074C130.064,98.41,301.008,118.778,399.872,217.658L436.96,254.906z"/>
	<path style="fill:#4B9FD8;" d="M364.304,254.842l88.112,88.112c21.136,21.136,57.296,6.176,57.296-23.728V190.442
		c0-29.904-36.144-44.864-57.296-23.728L364.304,254.842z"/>
</g>
<circle style="fill:#FFFFFF;" cx="71.968" cy="229.722" r="19.888"/>
<circle style="fill:#464646;" cx="71.968" cy="229.722" r="12.96"/>
<circle style="fill:#FFFFFF;" cx="77.248" cy="224.458" r="3.152"/>
<g>
	<path style="fill:#8BD5EC;" d="M253.104,317.258c-13.536-13.568-13.52-35.616,0.016-49.136c7.312-7.312,7.328-19.216,0.016-26.528
		c-13.568-13.616-13.568-35.664-0.032-49.2c3.12-3.12,8.192-3.12,11.328,0c3.12,3.104,3.12,8.192,0,11.312
		c-7.312,7.312-7.312,19.2-0.016,26.512c13.584,13.616,13.568,35.664,0.032,49.2c-7.328,7.312-7.328,19.216-0.016,26.528
		c3.12,3.12,3.12,8.208,0,11.312C261.28,320.41,256.208,320.378,253.104,317.258z"/>
	<path style="fill:#8BD5EC;" d="M196.992,317.258c-13.536-13.568-13.536-35.616,0.016-49.136c7.312-7.312,7.328-19.216,0.032-26.528
		c-13.584-13.616-13.568-35.664-0.032-49.2c3.12-3.12,8.192-3.12,11.312,0s3.12,8.192,0,11.312
		c-7.312,7.312-7.312,19.2-0.016,26.512c13.584,13.616,13.568,35.664,0.032,49.2c-7.328,7.312-7.328,19.216-0.016,26.528
		c3.12,3.12,3.12,8.208,0,11.312C205.168,320.41,200.096,320.378,196.992,317.258z"/>
	<path style="fill:#8BD5EC;" d="M140.864,317.258c-13.536-13.568-13.52-35.616,0.016-49.136c7.312-7.312,7.328-19.216,0.016-26.528
		c-13.584-13.616-13.568-35.664-0.032-49.2c3.12-3.12,8.192-3.12,11.312,0s3.12,8.192,0,11.312c-7.312,7.312-7.312,19.2,0,26.512
		c13.568,13.616,13.568,35.664,0.032,49.2c-7.328,7.312-7.328,19.216-0.032,26.528c3.12,3.12,3.12,8.208,0,11.312
		C149.04,320.41,143.968,320.378,140.864,317.258z"/>
</g>
<g>
	<path style="fill:#3789C9;" d="M394.048,238.826h-66.64c-8.832,0-16,7.152-16,16c0,8.848,7.168,16,16,16h66.64
		c8.832,0,16-7.152,16-16C410.048,245.978,402.88,238.826,394.048,238.826z"/>
	<path style="fill:#3789C9;" d="M458.624,238.826h-18.64c-8.832,0-16,7.152-16,16c0,8.848,7.168,16,16,16h18.64
		c8.832,0,16-7.152,16-16C474.624,245.978,467.456,238.826,458.624,238.826z"/>
</g>
<g>
</g>
<g>
</g>
<g>
</g>
<g>
</g>
<g>
</g>
<g>
</g>
<g>
</g>
<g>
</g>
<g>
</g>
<g>
</g>
<g>
</g>
<g>
</g>
<g>
</g>
<g>
</g>
<g>
</g>
</svg>
